<svg xmlns="http://www.w3.org/2000/svg" viewBox="0 0 500 500"><g id="freepik--background-complete--inject-8"><path d="M81.43,299.69a29,29,0,1,0-13.3-31.38A28.94,28.94,0,0,0,81.43,299.69Z" style="fill:#ebebeb"></path><path d="M87.52,271.64a8.83,8.83,0,1,0,8.72-8.93A8.82,8.82,0,0,0,87.52,271.64Z" style="fill:#fff"></path><path d="M81.39,296.05l0,3.64a29,29,0,0,0,30.49-.38l0-3.63a15.25,15.25,0,1,0-30.49.37Z" style="fill:#fff"></path><path d="M403.84,182.16a19,19,0,1,0-8.71-20.55A18.8,18.8,0,0,0,403.84,182.16Z" style="fill:#ebebeb"></path><path d="M407.83,163.79a5.78,5.78,0,1,0,5.71-5.85A5.78,5.78,0,0,0,407.83,163.79Z" style="fill:#fff"></path><path d="M403.81,179.78l0,2.38a19,19,0,0,0,20-.25l0-2.37a10,10,0,1,0-20,.24Z" style="fill:#fff"></path><path d="M214.91,134.15H88.27V47.51H214.91Zm-125.64-1H213.91V48.51H89.27Z" style="fill:#ebebeb"></path><path d="M98.17,53.1a2.52,2.52,0,1,1-2.52-2.53A2.52,2.52,0,0,1,98.17,53.1Z" style="fill:#a6a6a6"></path><path d="M108.46,53.1a2.52,2.52,0,1,1-2.52-2.53A2.52,2.52,0,0,1,108.46,53.1Z" style="fill:#ebebeb"></path><path d="M118.75,53.1a2.52,2.52,0,1,1-2.52-2.53A2.52,2.52,0,0,1,118.75,53.1Z" style="fill:#FFC727"></path><rect x="88.77" y="57.53" width="125.64" height="1" style="fill:#ebebeb"></rect><rect x="63.53" y="155.5" width="66.59" height="42.23" transform="translate(-22.98 14.7) rotate(-7.77)" style="fill:#ebebeb"></rect><path d="M127,151.2c-2.32,2.91-4.7,5.72-7,8.6s-4.75,5.64-7.15,8.44-5,5.82-7.52,8.71l-.23.27q-3.33,3.83-6.7,7.63l-.33.37-.41-.26-8.49-5.58a2.49,2.49,0,0,1-.3-.19Q84,176,79.2,172.81q-4.56-3.08-9.13-6.22c-3-2.14-6.08-4.21-9.09-6.39,3.13,1.79,6.23,3.71,9.34,5.56s6.21,3.8,9.3,5.74q5.16,3.21,10.32,6.53h0l7.73,5c2-2.28,4.06-4.58,6.11-6.84,0,0,0,0,0,0,2.73-3,5.46-6.06,8.21-9.05q3.69-4,7.41-8C122,156.44,124.42,153.77,127,151.2Z" style="fill:#fff"></path><path d="M90.17,179a.5.5,0,0,1-.07.08c-.3.34-.61.69-.92,1-1.46,1.63-3,3.2-4.52,4.73-1.88,1.89-3.82,3.72-5.77,5.54s-4,3.58-6,5.31-4.1,3.43-6.25,5c1.76-2,3.62-4,5.5-5.83s3.84-3.72,5.78-5.54,4-3.59,6-5.32c1.62-1.38,3.27-2.75,5-4.05l1.19-.9Z" style="fill:#fff"></path><path d="M132.32,191.72c-2.5-1-4.95-2.05-7.36-3.17s-4.81-2.31-7.19-3.51-4.73-2.48-7-3.8c-1.89-1.06-3.77-2.16-5.6-3.33l-1.17-.75s-.06,0-.09-.06l.1,0,1.39.56c2,.8,3.93,1.67,5.87,2.57,2.43,1.12,4.81,2.31,7.18,3.52s4.73,2.47,7,3.79S130.08,190.24,132.32,191.72Z" style="fill:#fff"></path><rect x="346.54" y="240.82" width="66.9" height="105.49" transform="translate(6.79 595.72) rotate(-76.68)" style="fill:#ebebeb"></rect><path d="M439,273.17c-5.08,3-10.21,5.78-15.31,8.69s-10.24,5.64-15.37,8.41q-8,4.35-16.08,8.58l-.49.29-14.25,7.46-.7.34-.46-.62q-4.71-6.52-9.37-13.07a5.48,5.48,0,0,1-.34-.46q-5.29-7.4-10.54-14.9c-3.33-4.75-6.65-9.57-10-14.39s-6.57-9.68-9.78-14.63c3.6,4.44,7.09,9,10.63,13.55s7,9.15,10.48,13.78q5.79,7.68,11.54,15.54s0,0,0,0q4.31,5.85,8.6,11.72c4.3-2.21,8.62-4.45,12.93-6.62,0,0,0,0,0,0q8.64-4.41,17.29-8.72,7.74-3.84,15.52-7.6C428.63,278.06,433.81,275.52,439,273.17Z" style="fill:#fff"></path><path d="M368.82,293.25c-.05,0-.09.06-.15.08-.64.34-1.29.67-1.94,1-3.09,1.57-6.22,3-9.38,4.41-3.86,1.72-7.77,3.32-11.69,4.9s-7.87,3-11.86,4.44-8,2.74-12.1,3.87c3.76-2,7.6-3.77,11.45-5.48s7.79-3.31,11.7-4.9,7.88-3.05,11.88-4.45c3.17-1.11,6.39-2.19,9.65-3.15.75-.23,1.5-.44,2.27-.65Z" style="fill:#fff"></path><path d="M423.86,336.12c-3.15-2.84-6.15-5.85-9.08-8.89s-5.79-6.15-8.63-9.28-5.58-6.35-8.25-9.62c-2.19-2.66-4.34-5.35-6.38-8.12-.45-.6-.88-1.19-1.31-1.78a1.7,1.7,0,0,1-.1-.14.75.75,0,0,0,.14.12L392,300c2.48,2.32,4.86,4.72,7.22,7.15,2.94,3,5.78,6.15,8.6,9.3s5.58,6.35,8.26,9.62S421.39,332.66,423.86,336.12Z" style="fill:#fff"></path><rect x="355.97" y="38.96" width="60.61" height="38.44" style="fill:#ebebeb"></rect><path d="M416.58,39c-2.45,2.34-4.94,4.58-7.41,6.89s-5,4.51-7.48,6.73-5.24,4.64-7.86,6.93l-.23.22-7,6.06-.35.28-.34-.28-7-6.07-.24-.21q-3.95-3.43-7.87-6.94c-2.49-2.21-5-4.47-7.47-6.72s-5-4.55-7.41-6.89c2.6,2,5.16,4.11,7.74,6.17s5.13,4.18,7.68,6.32q4.26,3.52,8.51,7.15s0,0,0,0c2.12,1.79,4.24,3.6,6.36,5.41,2.11-1.81,4.23-3.63,6.35-5.41,0,0,0,0,0,0q4.25-3.6,8.51-7.16,3.82-3.18,7.67-6.3C411.42,43.07,414,41,416.58,39Z" style="fill:#fff"></path><path d="M380,59.48l-.07.06q-.48.42-1,.81c-1.52,1.29-3.07,2.52-4.66,3.71-1.93,1.47-3.9,2.88-5.89,4.29s-4,2.73-6,4.05-4.11,2.59-6.25,3.76c1.84-1.61,3.75-3.11,5.68-4.57s3.91-2.89,5.88-4.29,4-2.75,6.06-4.06c1.63-1.05,3.28-2.08,5-3l1.18-.67Z" style="fill:#fff"></path><path d="M416.43,76.16c-2.14-1.17-4.21-2.45-6.25-3.76s-4.05-2.68-6.05-4.05-4-2.82-5.89-4.29c-1.58-1.19-3.13-2.41-4.64-3.7l-1-.82s0,0-.07-.06l.09.05,1.18.67c1.7,1,3.34,2,5,3,2.05,1.31,4.05,2.68,6.05,4.06s3.95,2.81,5.88,4.29S414.59,74.55,416.43,76.16Z" style="fill:#fff"></path></g><g id="freepik--Shadow--inject-8"><ellipse cx="249.79" cy="432.27" rx="198.33" ry="41.86" style="fill:#ebebeb"></ellipse></g><g id="freepik--Floor--inject-8"><polygon points="39.97 370.9 92.48 370.65 144.99 370.57 250 370.4 355.01 370.56 407.52 370.65 460.03 370.9 407.52 371.14 355.01 371.23 250 371.4 144.99 371.23 92.48 371.14 39.97 370.9" style="fill:#263238"></polygon></g><g id="freepik--Plant--inject-8"><path d="M388.71,309.94S372.12,306.18,363,297.8s-14.17-23.39-14.17-23.39a142.69,142.69,0,0,1,18.6,4.89,31.06,31.06,0,0,1,5.63,8,38.65,38.65,0,0,0,.05-5.69,25.25,25.25,0,0,1,5.91,3.59C386.58,291.75,388.71,309.94,388.71,309.94Z" style="fill:#FFC727"></path><path d="M359.21,281.71c-2.27-1.57-4.57-3.08-6.82-4.66a.13.13,0,0,1,.14-.22c4.27,2.56,8.49,5.29,12.57,8.14,1.42,1,2.81,2,4.19,3.1-.09-.17-.19-.33-.29-.5-.49-.83-1-1.65-1.54-2.46a35.17,35.17,0,0,0-3.53-4.7c0-.06,0-.14.09-.08,1.29,1.49,2.58,3,3.76,4.54.56.75,1.08,1.53,1.57,2.33.26.41.51.83.75,1.25.08.14.17.28.25.43,2.14,1.68,4.23,3.44,6.23,5.3,1.23,1.14,2.41,2.33,3.56,3.56-.64-2-1.2-4-1.95-6,0-.06.09-.09.11,0,.73,2.08,1.52,4.16,2.08,6.29,1.27,1.38,2.48,2.8,3.63,4.28L384,302q-.29-1.17-.6-2.34c-.4-1.5-.84-3-1.35-4.46a25.91,25.91,0,0,0-4.45-8.42.06.06,0,0,1,.08-.08A32.36,32.36,0,0,1,384,300q.27,1.07.51,2.13c.08.37.18.76.25,1.14.5.68,1,1.37,1.46,2.07a71.42,71.42,0,0,1,7,13.77,159.75,159.75,0,0,1,5.32,16.57c0,.11-.14.15-.17,0-3.25-9.7-6.56-19.55-12.11-28.23-1.18-1.83-2.45-3.6-3.79-5.3a31.24,31.24,0,0,1-8.07-1.61,35.71,35.71,0,0,1-8.09-3.9c-1.46-.95-2.79-2.05-4.14-3.13a.06.06,0,1,1,.07-.09,33.07,33.07,0,0,0,7.6,4.6,42,42,0,0,0,8.37,2.81c1.23.27,2.47.46,3.71.63A69.72,69.72,0,0,0,377,296c-.56-.56-1.14-1.09-1.71-1.63a39.33,39.33,0,0,0-6.14-3.52c-2.72-1.31-5.39-2.7-8.08-4.07-1.52-.77-3-1.56-4.56-2.31-.07,0,0-.13.06-.1,2.73,1.32,5.5,2.55,8.25,3.81,2.59,1.19,5.21,2.38,7.7,3.78l.31.18q-3.37-2.93-6.95-5.62C363.71,284.9,361.47,283.28,359.21,281.71Z" style="fill:#263238"></path><path d="M360.15,290.26c1.35.59,2.72,1.12,4.06,1.74s2.67,1.4,4,2.17c.06,0,0,.11-.06.08-1.32-.63-2.66-1.22-4-1.88s-2.67-1.4-4-2C360.05,290.34,360.08,290.23,360.15,290.26Z" style="fill:#263238"></path><path d="M442.61,226.33a23.68,23.68,0,0,0-5,13.78c-.06,1.49.18,3.56.35,6a39.3,39.3,0,0,0-10.83,9.25,19.68,19.68,0,0,1,10.94-2.62,31.17,31.17,0,0,1-.63,5,18.81,18.81,0,0,0-7,1.39,15.81,15.81,0,0,1,6.35,1.26c-3,9.41-11.75,19.08-36,23.18a51,51,0,0,1,4.3-34.16C412.34,235.06,442.61,226.33,442.61,226.33Z" style="fill:#FFC727"></path><path d="M392.36,323.8q.63-6,1.57-12a240.62,240.62,0,0,1,4.9-23.76,96.28,96.28,0,0,1,3.5-10.83,18,18,0,0,1-.09-1.94c0-.78,0-1.56,0-2.33,0-1.56.09-3.11.22-4.66a55.91,55.91,0,0,1,1.5-9.1c.44-1.73,1-3.43,1.46-5.15,0-.07.13,0,.11,0a66.86,66.86,0,0,0-1.79,9.08,84.45,84.45,0,0,0-.82,9.11c0,.84,0,1.67,0,2.51,0,.35,0,.71,0,1.07a80.41,80.41,0,0,1,4.09-8.47,103.48,103.48,0,0,1,8.31-12.43,5.73,5.73,0,0,1,.2-1.36l.36-1.62c.25-1.11.52-2.21.82-3.31.61-2.2,1.4-4.33,2.09-6.5,0-.07.13,0,.11,0-.64,2.15-1.07,4.37-1.56,6.56l-.72,3.25c-.12.54-.23,1.09-.34,1.63l0,.12c1-1.24,2-2.46,3-3.66,4.64-5.44,9.72-10.45,14.83-15.43.63-.61,1.28-1.21,1.92-1.81,0,0,.12,0,.07.08-4.89,5.1-9.7,10.26-14.26,15.66q-1.62,1.92-3.2,3.9l1.66-1.1c1.41-.93,2.84-1.83,4.32-2.65s2.95-1.63,4.47-2.38,3.22-1.4,4.72-2.28c.06,0,.12.08.05.1a36.91,36.91,0,0,0-4.43,2.46c-1.47.87-2.95,1.76-4.4,2.68s-2.86,1.79-4.28,2.71c-1.18.77-2.34,1.61-3.57,2.32a112.25,112.25,0,0,0-7.77,11.32,81.54,81.54,0,0,0-4,7.62l.87-.38,2.22-1c1.43-.64,2.86-1.25,4.3-1.88,2.72-1.18,5.48-2.27,8.15-3.57a37.8,37.8,0,0,0,4.36-2.42c.06,0,.12.06.06.1-5,3.43-10.56,5.85-16.07,8.29l-2.39,1.05c-.66.29-1.31.62-2,.87a84.86,84.86,0,0,0-4.1,11.25,227.13,227.13,0,0,0-5.29,23.49C394.07,317,393.13,325,392.4,333c-.09,1-.18,2-.29,3a.32.32,0,0,1-.64,0C391.52,331.92,391.94,327.84,392.36,323.8Z" style="fill:#263238"></path><path d="M407.13,256.76c.44-2.47,1.1-4.89,1.77-7.3,0-.07.12,0,.11,0-.62,2.37-1.06,4.79-1.5,7.2s-.86,4.92-1.21,7.39c0,0-.07,0-.06,0A64.15,64.15,0,0,1,407.13,256.76Z" style="fill:#263238"></path><path d="M417.59,263.45a42.75,42.75,0,0,1,5.28-3c.89-.46,1.78-.89,2.68-1.33s1.88-.82,2.8-1.28c.06,0,.12.07,0,.1-.88.44-1.73,1-2.6,1.46s-1.79,1-2.69,1.47c-1.78,1-3.52,2-5.39,2.79A.14.14,0,0,1,417.59,263.45Z" style="fill:#263238"></path><path d="M388.41,281.2s-15.36-3.66-22.41-14c-6.73-9.84-8.91-26.61-9.08-28.08.28,1.35,3.45,16,13.9,22.83C378.82,267.22,386.55,271.52,388.41,281.2Z" style="fill:#263238;opacity:0.1"></path><path d="M374.24,254.68A19.68,19.68,0,0,1,379.9,264s0,.05,0,0a23,23,0,0,0-5.69-9.26A.06.06,0,0,1,374.24,254.68Z" style="fill:#263238"></path><path d="M388.41,281.2s-15.36-3.66-22.41-14c-6.73-9.84-8.91-26.61-9.08-28.08a.65.65,0,0,0,0-.1s7.37,10.46,15.11,13.13S390.62,264.09,388.41,281.2Z" style="fill:#FFC727"></path><path d="M359.63,244.83a62,62,0,0,0,4.74,8.11,32.18,32.18,0,0,0,6.32,6.5c2.08,1.66,4.29,3.16,6.4,4.78l0-.07c-.4-.59-.82-1.16-1.26-1.72-.88-1.12-1.84-2.18-2.8-3.23-1.91-2.07-3.86-4.1-5.57-6.34a23.47,23.47,0,0,1-2.46-4c0-.06.08-.1.11,0,2.49,5.19,7.46,8.51,11,12.9a23,23,0,0,1,1.42,1.94,7.66,7.66,0,0,1,.88,1.56,32,32,0,0,1,5.24,5.29,21.29,21.29,0,0,0-.62-3,15.25,15.25,0,0,0-1.62-3.89.05.05,0,0,1,.09-.06,18.52,18.52,0,0,1,1.79,3.86,13.5,13.5,0,0,1,.56,3.32h0a32,32,0,0,1,2.07,3.22c-.06-.32-.12-.65-.19-1-.3-1.53-.64-3.05-1-4.56a27.19,27.19,0,0,0-3.69-8.65c0-.06,0-.13.09-.07a32.84,32.84,0,0,1,4.1,8.47c.48,1.5.88,3,1.22,4.58.17.76.32,1.51.47,2.27.07.4.16.8.22,1.2a55.32,55.32,0,0,1,3.54,10.41,153.62,153.62,0,0,1,3.28,19.41,163.32,163.32,0,0,1,1.05,20.62c0,.86-.06,1.72-.11,2.58a.18.18,0,1,1-.35,0c-.15-3.4-.24-6.81-.45-10.21s-.49-6.81-.86-10.2a179.89,179.89,0,0,0-3.2-19.85c-1.24-5.62-2.86-11.27-5.92-16.18a30.44,30.44,0,0,0-5.54-6.59c-2.16-1.93-4.51-3.63-6.78-5.42a37.41,37.41,0,0,1-6.22-6,49.23,49.23,0,0,1-4.88-7.93l-1.1-2.08C359.5,244.83,359.59,244.76,359.63,244.83Z" style="fill:#263238"></path><path d="M362.28,247.08a49.88,49.88,0,0,0,3.42,6,0,0,0,0,1-.07.05,41,41,0,0,1-3.46-6C362.14,247.05,362.24,247,362.28,247.08Z" style="fill:#263238"></path><path d="M444.75,274.41s.24,21.82-12.81,28.12-20,1.05-28.9,3.16h0c.35-.52,6.68-9.61,16.74-12.12C430.14,291,441.61,283.5,444.75,274.41Z" style="fill:#FFC727"></path><path d="M444.75,274.41s.24,21.82-12.81,28.12-20,1.05-28.9,3.16h0a49.32,49.32,0,0,1,14.84-4.38C426.11,300.31,441.83,295,444.75,274.41Z" style="opacity:0.1"></path><path d="M402.18,306.08a22,22,0,0,1,5.19-3.51c.28-.14.57-.25.85-.37s.28-.34.44-.5a14.94,14.94,0,0,1,1.23-1.16,18,18,0,0,1,2.62-1.9c2.16-1.27,4.53-2.16,6.74-3.34.06,0,.12.07.06.1-1.1.57-2.15,1.19-3.22,1.81S414,298.39,413,299a22.41,22.41,0,0,0-2.59,1.94c-.23.2-.45.42-.67.64a35.36,35.36,0,0,1,4.41-1.17c2.39-.49,4.81-.83,7.19-1.34a33.91,33.91,0,0,0,3.46-.93c1.08-.87,2.16-1.74,3.19-2.68a26,26,0,0,0,3.37-3.74c0-.06.14,0,.1.06a39.89,39.89,0,0,1-5.35,5.9c.56-.21,1.12-.44,1.67-.69a26.94,26.94,0,0,0,11.11-9.25c0-.06.14,0,.1.06a30.44,30.44,0,0,1-9,8.63,27.41,27.41,0,0,1-5.69,2.69,53.25,53.25,0,0,1-7.06,1.67,49.61,49.61,0,0,0-6.91,1.65,20.65,20.65,0,0,0-5.8,3,27.11,27.11,0,0,0-7.82,9.69,48.73,48.73,0,0,0-4.3,15.95c0,.24-.39.24-.37,0C392.66,322,395.11,312.45,402.18,306.08Z" style="fill:#263238"></path><path d="M417.32,299a7.48,7.48,0,0,1,2.68-2.44,9.81,9.81,0,0,0,3.19-2.64c0-.05.14,0,.1.06a10.79,10.79,0,0,1-2.82,2.53A9.67,9.67,0,0,0,417.4,299C417.37,299.07,417.29,299,417.32,299Z" style="fill:#263238"></path><polygon points="410.4 322.18 409.8 334.18 407.99 370.84 380.62 370.84 378.8 334.18 378.2 322.18 410.4 322.18" style="fill:#37474f"></polygon><polygon points="410.4 322.18 409.8 334.18 378.8 334.18 378.2 322.18 410.4 322.18" style="fill:#263238"></polygon><rect x="376.29" y="317.17" width="36.03" height="11.45" style="fill:#37474f"></rect></g><g id="freepik--Device--inject-8"><path d="M331.37,54.55H168.2a16.65,16.65,0,0,0-16.51,16.81V407.25a16.67,16.67,0,0,0,16.51,16.81H331.37a16.68,16.68,0,0,0,16.52-16.81V71.36A16.67,16.67,0,0,0,331.37,54.55Zm6.19,342.31c0,8.84-6.62,16-14.78,16h-146c-8.18,0-14.8-7.16-14.8-16V84.09c0-18,6.62-18.89,14.8-18.89h29.25c1.7,0,3.09,1.93,3.09,4.32v1c0,5.61,3.07,5.62,6.83,5.62h67.62c3.8,0,6.85,0,6.85-5.62v-1c0-2.39,1.37-4.32,3.1-4.32h29.24c8.16,0,14.78,2.39,14.78,18.89Z" style="fill:#263238"></path><path d="M337.57,84.36V397.14c0,8.84-6.62,16-14.78,16h-146c-8.18,0-14.8-7.15-14.8-16V84.36c0-18,6.62-18.88,14.8-18.88h29.25c1.7,0,3.09,1.93,3.09,4.32v1c0,5.61,3.07,5.63,6.83,5.63H283.6c3.8,0,6.85,0,6.85-5.63v-1c0-2.39,1.37-4.32,3.1-4.32h29.24C331,65.48,337.57,67.87,337.57,84.36Z" style="fill:#fff"></path><path d="M337.57,84.37v28.37H162V84.37c0-18,6.62-18.89,14.8-18.89h29.25c1.7,0,3.09,1.93,3.09,4.32v1c0,5.6,3.07,5.62,6.83,5.62H283.6c3.8,0,6.85,0,6.85-5.62v-1c0-2.39,1.37-4.32,3.1-4.32h29.24C331,65.48,337.57,67.87,337.57,84.37Z" style="fill:#FFC727"></path><path d="M259,69.18H240.56A1.14,1.14,0,0,1,239.43,68h0a1.14,1.14,0,0,1,1.13-1.14H259A1.14,1.14,0,0,1,260.15,68h0A1.14,1.14,0,0,1,259,69.18Z" style="fill:#fff"></path><g id="freepik--u5Zjqx--inject-8"><path d="M201,72.23c-.09.09-.19.18-.28.28a1.21,1.21,0,0,0-.16.16,3.85,3.85,0,0,0-5.45,0l-.15-.16-.28-.28h0l0,0,.36-.31a4,4,0,0,1,.82-.53A4.32,4.32,0,0,1,197,71l.55-.07H198l.37,0a4.29,4.29,0,0,1,1,.24,3.26,3.26,0,0,1,.68.32,4.18,4.18,0,0,1,.65.45l.3.27Z" style="fill:#fff"></path><path d="M196,73.56l-.45-.45a3.22,3.22,0,0,1,4.55,0l-.45.44a2.55,2.55,0,0,0-1.83-.75A2.51,2.51,0,0,0,196,73.56Z" style="fill:#fff"></path><path d="M199.21,74l-.44.44a1.31,1.31,0,0,0-.94-.38,1.27,1.27,0,0,0-.93.39l-.45-.45A1.94,1.94,0,0,1,199.21,74Z" style="fill:#fff"></path><path d="M198.24,74.85a.41.41,0,1,1-.41-.4A.4.4,0,0,1,198.24,74.85Z" style="fill:#fff"></path></g><path d="M173.45,73.08a1.17,1.17,0,1,1,1.16,1.16A1.16,1.16,0,0,1,173.45,73.08Z" style="fill:#fff"></path><path d="M177.12,73.08a1.16,1.16,0,1,1,1.16,1.16A1.16,1.16,0,0,1,177.12,73.08Z" style="fill:#fff"></path><path d="M180.78,73.08a1.17,1.17,0,1,1,1.16,1.16A1.16,1.16,0,0,1,180.78,73.08Z" style="fill:#fff"></path><path d="M184.44,73.08a1.17,1.17,0,1,1,1.17,1.16A1.17,1.17,0,0,1,184.44,73.08Z" style="fill:#fff"></path><path d="M188.11,73.08a1.17,1.17,0,1,1,1.16,1.16A1.16,1.16,0,0,1,188.11,73.08Z" style="fill:#fff"></path><path d="M324.4,75.62h-9.47V71.23h9.47Zm-9-.48h8.5V71.71h-8.5Z" style="fill:#fff"></path><rect x="315.71" y="71.98" width="6.11" height="2.9" style="fill:#fff"></rect><rect x="324.4" y="72.25" width="0.84" height="2.35" style="fill:#fff"></rect><polygon points="178.64 101.89 173.45 97.03 178.64 92.17 179.44 93.03 175.17 97.03 179.44 101.03 178.64 101.89" style="fill:#fff"></polygon><path d="M321.65,102.24h-3.5V101a.28.28,0,0,0-.15-.24,3.64,3.64,0,0,1-.39-.23.29.29,0,0,0-.3,0l-1.05.61-1.75-3,1.06-.61a.3.3,0,0,0,.13-.26c0-.07,0-.15,0-.22s0-.15,0-.22a.32.32,0,0,0-.13-.27l-1.06-.6,1.75-3,1.05.61a.28.28,0,0,0,.29,0l.4-.22a.29.29,0,0,0,.15-.25V91.82h3.5V93a.28.28,0,0,0,.15.25,3.61,3.61,0,0,1,.39.22.3.3,0,0,0,.3,0l1.05-.61,1.75,3-1.06.61a.26.26,0,0,0-.13.26v.44a.26.26,0,0,0,.13.26l1.06.61-1.75,3-1.06-.61a.28.28,0,0,0-.29,0,3.64,3.64,0,0,1-.39.23.28.28,0,0,0-.15.24Zm-2.75-.75h2V101a1,1,0,0,1,.56-.91l.32-.18a1,1,0,0,1,1.08,0l.4.23,1-1.73-.41-.23a1,1,0,0,1-.5-1v-.37a1,1,0,0,1,.51-.94l.4-.24-1-1.73-.4.24a1,1,0,0,1-1.08,0,1.65,1.65,0,0,0-.32-.18,1,1,0,0,1-.56-.92v-.46h-2V93a1,1,0,0,1-.57.92,2.58,2.58,0,0,0-.32.18,1,1,0,0,1-1.07,0l-.41-.24-1,1.73.4.24a1,1,0,0,1,.51.95v.37a1,1,0,0,1-.51.94l-.4.23,1,1.73.41-.23a1,1,0,0,1,1.08,0,3.37,3.37,0,0,0,.32.19,1,1,0,0,1,.56.91Zm1-1.84A2.63,2.63,0,1,1,322.52,97,2.62,2.62,0,0,1,319.9,99.65Zm0-4.5A1.88,1.88,0,1,0,321.77,97,1.88,1.88,0,0,0,319.9,95.15Z" style="fill:#fff"></path><polygon points="312.43 301.68 187.15 301.68 187.15 195.7 249.78 155.92 312.43 195.7 312.43 301.68" style="fill:#FFC727"></polygon><polygon points="312.43 301.68 187.15 301.68 187.15 195.7 249.78 155.92 312.43 195.7 312.43 301.68" style="opacity:0.2"></polygon><polygon points="305.37 293.57 194.21 293.57 194.21 150.88 276.75 150.88 305.37 178.07 305.37 293.57" style="fill:#ebebeb"></polygon><polygon points="276.75 150.88 305.37 178.07 276.75 178.07 276.75 150.88" style="fill:#dbdbdb"></polygon><rect x="205.06" y="174.82" width="61.8" height="3.66" transform="translate(471.92 353.31) rotate(180)" style="fill:#dbdbdb"></rect><rect x="205.06" y="184.07" width="61.8" height="3.66" transform="translate(471.92 371.81) rotate(180)" style="fill:#dbdbdb"></rect><rect x="205.06" y="193.32" width="61.8" height="3.66" transform="translate(471.92 390.3) rotate(180)" style="fill:#dbdbdb"></rect><rect x="205.06" y="202.57" width="90.55" height="3.66" transform="translate(500.66 408.8) rotate(180)" style="fill:#dbdbdb"></rect><rect x="205.06" y="211.81" width="90.55" height="3.66" transform="translate(500.66 427.29) rotate(180)" style="fill:#dbdbdb"></rect><rect x="205.06" y="221.06" width="90.55" height="3.66" transform="translate(500.66 445.79) rotate(180)" style="fill:#dbdbdb"></rect><rect x="205.06" y="230.31" width="90.55" height="3.66" transform="translate(500.66 464.29) rotate(180)" style="fill:#dbdbdb"></rect><rect x="205.06" y="239.56" width="90.55" height="3.66" transform="translate(500.66 482.78) rotate(180)" style="fill:#dbdbdb"></rect><rect x="205.06" y="248.81" width="90.55" height="3.66" transform="translate(500.66 501.28) rotate(180)" style="fill:#dbdbdb"></rect><rect x="205.06" y="258.06" width="90.55" height="3.66" transform="translate(500.66 519.77) rotate(180)" style="fill:#dbdbdb"></rect><rect x="205.06" y="267.3" width="90.55" height="3.66" transform="translate(500.66 538.27) rotate(180)" style="fill:#dbdbdb"></rect><rect x="205.06" y="276.55" width="90.55" height="3.66" transform="translate(500.66 556.77) rotate(180)" style="fill:#dbdbdb"></rect><path d="M312.43,222.23v79.45H187.15V222.23c5.38,3,10.67,6.24,16,9.36s10.61,6.36,15.88,9.6c5.87,3.57,11.74,7.21,17.59,10.87l.19-.11c-.06,0-.09.1-.15.13q6.57,4.09,13.15,8.23c4.37-2.75,8.75-5.52,13.13-8.23-.05,0-.09-.09-.15-.13a.87.87,0,0,0,.19.1q8.77-5.48,17.59-10.88,7.9-4.83,15.86-9.58C301.77,228.47,307.05,225.27,312.43,222.23Z" style="fill:#FFC727"></path><g style="opacity:0.2"><path d="M312.43,222.23c-5.06,3.55-10.21,7-15.31,10.46s-10.29,6.84-15.47,10.23q-8.1,5.31-16.23,10.52l-.49.34L250.5,263l-.72.43-.69-.43q-7.23-4.61-14.42-9.22l-.5-.32q-8.16-5.22-16.26-10.54c-5.16-3.37-10.31-6.79-15.45-10.21s-10.25-6.91-15.31-10.46c5.38,3,10.67,6.24,16,9.36s10.61,6.36,15.88,9.6c5.87,3.57,11.74,7.21,17.59,10.87l0,0q6.57,4.09,13.15,8.23c4.37-2.75,8.75-5.52,13.13-8.23,0,0,0,0,0,0q8.77-5.48,17.59-10.88,7.9-4.83,15.86-9.58C301.77,228.47,307.05,225.27,312.43,222.23Z"></path><path d="M236.8,252c-.06,0-.09.1-.15.13q-1,.85-2,1.68c-3.14,2.65-6.36,5.19-9.63,7.66-4,3-8.07,6-12.17,8.86s-8.26,5.66-12.49,8.37-8.51,5.36-12.93,7.79c3.8-3.33,7.75-6.44,11.74-9.46s8.09-6,12.17-8.87,8.28-5.68,12.51-8.39c3.37-2.16,6.8-4.29,10.3-6.28.8-.47,1.61-.92,2.44-1.38Z"></path><path d="M312.13,286.44c-4.42-2.43-8.71-5.08-12.92-7.79s-8.38-5.53-12.51-8.37-8.19-5.82-12.18-8.86c-3.25-2.47-6.47-5-9.59-7.64l-2-1.7c-.05,0-.09-.09-.15-.13a.87.87,0,0,0,.19.1c.83.47,1.64.92,2.45,1.39,3.5,2,6.9,4.12,10.29,6.28,4.23,2.71,8.37,5.53,12.49,8.39s8.18,5.82,12.17,8.87S308.33,283.11,312.13,286.44Z"></path></g><rect x="187.15" y="330.64" width="18.26" height="18.26" style="fill:#ebebeb"></rect><rect x="213.83" y="330.64" width="18.26" height="18.26" style="fill:#ebebeb"></rect><rect x="240.51" y="330.64" width="18.26" height="18.26" style="fill:#ebebeb"></rect><rect x="267.19" y="330.64" width="18.26" height="18.26" style="fill:#ebebeb"></rect><rect x="293.88" y="330.64" width="18.26" height="18.26" style="fill:#ebebeb"></rect><rect x="186.59" y="358.52" width="124.98" height="1.97" style="fill:#ebebeb"></rect><rect x="186.59" y="363.72" width="124.98" height="1.97" style="fill:#ebebeb"></rect><rect x="186.59" y="368.93" width="124.98" height="1.97" style="fill:#ebebeb"></rect><rect x="186.59" y="374.13" width="58.02" height="1.97" style="fill:#ebebeb"></rect></g><g id="freepik--paper-planes--inject-8"><path d="M187.62,177H186.2v-.75h4V177Zm-6.42-.07-4-.11,0-.75,4,.11Zm14,0,0-.75c1.32,0,2.65-.06,4-.11l0,.75C197.86,176.84,196.53,176.87,195.21,176.9Zm9-.31,0-.75,4-.2,0,.75Zm-32,0c-1.35-.08-2.69-.17-4-.27l.05-.75c1.31.1,2.63.19,4,.27Zm41-.49-.05-.75,4-.28.06.75Zm-50-.22c-1.36-.14-2.68-.29-4-.46l.09-.74c1.29.16,2.62.31,4,.45Zm59-.46-.07-.75,4-.35.07.75Zm-67.92-.69c-1.35-.21-2.67-.44-4-.68l.14-.73c1.28.23,2.59.46,3.93.67Zm76.88-.14-.07-.75,4-.41.08.75Zm9-1-.09-.75,1-.12c1-.11,1.95-.23,2.92-.36l.1.74-2.94.37ZM145.4,173c-1.32-.3-2.63-.62-3.89-1l.19-.73c1.25.34,2.55.65,3.87.95ZM249,172.39l-.12-.74c1.32-.22,2.63-.44,3.94-.69l.14.74Q251,172.06,249,172.39Zm8.88-1.66-.15-.73c1.3-.28,2.6-.56,3.9-.86l.16.73C260.53,170.17,259.23,170.45,257.92,170.73Zm-121.23-.06c-1.29-.41-2.57-.85-3.8-1.3l.26-.7c1.22.44,2.49.88,3.77,1.29Zm130-2-.19-.72c1.29-.33,2.58-.67,3.86-1l.2.72Zm-138.46-1.19c-1.24-.55-2.46-1.13-3.63-1.73l.34-.67c1.16.6,2.37,1.17,3.59,1.71Zm147.14-1.2-.21-.72,3.81-1.16.22.71C277.93,165.52,276.66,165.91,275.38,166.29Zm8.59-2.71-.24-.71c1.27-.43,2.53-.86,3.78-1.3l.25.71Zm-163.74-.28c-1.15-.71-2.28-1.46-3.35-2.23l.44-.61c1.06.76,2.17,1.5,3.31,2.2Zm172.24-2.72-.26-.71c1.25-.46,2.5-.93,3.74-1.41l.27.7C295,159.64,293.73,160.11,292.47,160.58ZM112.94,158q-1.53-1.32-2.94-2.76l.54-.52c.92.93,1.89,1.85,2.89,2.71Zm187.94-.64-.29-.69c1.25-.51,2.48-1,3.7-1.53l.29.69C303.36,156.3,302.12,156.81,300.88,157.31Zm8.3-3.5-.3-.69,3.66-1.62.3.68C311.64,152.73,310.42,153.27,309.18,153.81Zm-202.53-2.37a22,22,0,0,1-2.24-3.39l.66-.35a20.58,20.58,0,0,0,2.17,3.27Zm210.74-1.36-.31-.68c1.21-.57,2.42-1.14,3.61-1.72l.32.68C319.82,148.94,318.62,149.51,317.39,150.08Zm8.12-3.93-.34-.67,3.57-1.81.34.67Zm-222.8-2.9a14.78,14.78,0,0,1-.25-2.74c0-.45,0-.89.06-1.34l.74.06c0,.43-.05.85-.05,1.28a15.05,15.05,0,0,0,.23,2.6ZM333.52,142l-.35-.66c1.2-.64,2.38-1.27,3.53-1.9l.36.66Zm7.92-4.32-.36-.65,3.48-2,.37.65C343.8,136.37,342.64,137,341.44,137.7Zm-237-3.19-.7-.28a24.06,24.06,0,0,1,1.81-3.63l.64.39A23,23,0,0,0,104.41,134.51Zm244.85-1.31-.38-.65c1.19-.7,2.34-1.39,3.43-2.05l.39.64Zm7.71-4.69-.4-.64c1.22-.76,2.35-1.48,3.39-2.14l.4.63C359.33,127,358.2,127.74,357,128.51ZM109.06,127l-.57-.49c.83-1,1.75-2,2.74-3l.53.54C110.78,125.05,109.88,126,109.06,127Zm255.5-3.39-.42-.63c2.16-1.44,3.31-2.26,3.32-2.26l.43.61S366.73,122.16,364.56,123.61Zm-249.11-2.85-.48-.58c1-.82,2.06-1.66,3.17-2.48l.44.6C117.48,119.12,116.43,119.94,115.45,120.76Zm7.22-5.3-.41-.63c1.1-.71,2.25-1.43,3.41-2.13l.39.65C124.9,114,123.76,114.75,122.67,115.46Zm7.73-4.58-.36-.66c1.16-.62,2.36-1.24,3.57-1.84l.33.67C132.74,109.65,131.55,110.27,130.4,110.88Zm8.06-3.94-.3-.69c1.24-.55,2.49-1.07,3.7-1.56l.28.7C140.93,105.87,139.69,106.39,138.46,106.94Z" style="fill:#263238"></path><polygon points="373.49 103.64 367.67 121.02 380.56 110.39 430.41 90.81 373.49 103.64" style="fill:#FFC727"></polygon><polygon points="373.49 103.64 367.67 121.02 380.56 110.39 430.41 90.81 373.49 103.64" style="opacity:0.1"></polygon><polygon points="382.36 114.36 367.67 121.02 380.56 110.39 382.36 114.36" style="fill:#263238"></polygon><polygon points="380.56 110.39 430.41 90.81 390.2 132.19 380.56 110.39" style="fill:#FFC727"></polygon><polygon points="373.49 103.64 352.21 90.69 430.41 90.81 373.49 103.64" style="fill:#FFC727"></polygon><path d="M353.61,312.54c-.47-.46-1-.92-1.44-1.37l.51-.55c.49.46,1,.92,1.45,1.38Z" style="fill:#263238"></path><path d="M347,391.8l0-.75c1.34,0,2.68-.12,4-.25l.07.75C349.75,391.68,348.39,391.76,347,391.8Zm-5-.09c-1.32-.07-2.67-.19-4-.35l.08-.74c1.34.15,2.68.27,4,.35Zm14.07-.93-.16-.73c1.33-.28,2.62-.61,3.85-1l.22.72C358.72,390.16,357.4,390.5,356.06,390.78ZM333,390.61c-1.28-.24-2.61-.52-3.94-.83l.17-.73c1.32.31,2.63.58,3.91.82Zm-8.81-2.12c-1.27-.38-2.56-.79-3.84-1.22l.24-.71c1.27.43,2.55.84,3.81,1.21Zm40.52-.55-.32-.68a32.27,32.27,0,0,0,3.48-1.91l.4.64A35.66,35.66,0,0,1,364.69,387.94Zm-49.08-2.39c-1.24-.49-2.5-1-3.73-1.54l.3-.68c1.22.52,2.47,1,3.7,1.52Zm56.68-2.63-.51-.56a26.18,26.18,0,0,0,2.72-2.86l.58.47A26.72,26.72,0,0,1,372.29,382.92Zm-65-1q-1.79-.85-3.6-1.8l.34-.66c1.21.62,2.4,1.21,3.59,1.78Zm-8-4.18c-1.18-.66-2.33-1.34-3.47-2l.38-.64c1.14.68,2.29,1.35,3.46,2Zm78.62-2-.66-.36a26.07,26.07,0,0,0,1.61-3.61l.7.26A26.83,26.83,0,0,1,377.9,375.75Zm-86.36-2.68c-1.13-.73-2.24-1.48-3.34-2.23l.43-.62c1.09.75,2.2,1.49,3.32,2.22Zm-7.43-5.14c-1.08-.8-2.15-1.61-3.2-2.43l.46-.59c1.05.82,2.11,1.62,3.19,2.41Zm96.72-.8-.73-.13a33.46,33.46,0,0,0,.41-3.94l.75,0A31.25,31.25,0,0,1,380.83,367.13ZM277,362.37c-1-.86-2.06-1.72-3.07-2.59l.48-.57c1,.87,2,1.73,3.07,2.58Zm103.4-4.26c-.13-1.29-.32-2.62-.58-3.94l.74-.14c.26,1.35.46,2.69.58,4Zm-110.24-1.65c-1-.9-2-1.8-3-2.71l.52-.55q1.46,1.37,2.94,2.7Zm-6.59-6.16c-1-.93-1.91-1.87-2.86-2.81l.53-.54c.95.95,1.9,1.88,2.86,2.81Zm115-.95c-.37-1.23-.81-2.5-1.3-3.77l.7-.27c.5,1.29.94,2.57,1.32,3.82Zm-121.44-5.42c-.94-.95-1.87-1.91-2.8-2.87l.53-.52,2.8,2.86ZM375.3,341c-.56-1.17-1.18-2.37-1.83-3.54l.65-.36c.66,1.18,1.28,2.39,1.86,3.58Zm-124.44-3.56-2.77-2.91.55-.51,2.77,2.9Zm120.06-4.27c-.7-1.1-1.45-2.21-2.23-3.32l.62-.43c.78,1.11,1.53,2.24,2.24,3.35Zm-126.28-2.27-2.77-2.9.55-.52,2.76,2.9Zm121.08-5.06c-.8-1-1.65-2.07-2.52-3.11l.57-.48c.88,1,1.74,2.1,2.54,3.13Zm-127.31-1.46c-.93-1-1.85-1.92-2.79-2.88l.54-.53,2.79,2.89ZM359.9,319c-.88-1-1.79-1.94-2.74-2.91l.54-.53c.95,1,1.87,2,2.76,2.93Zm-127.79-1.05-2.83-2.84.53-.53,2.84,2.84Zm-6.4-6.35-2.89-2.77.51-.55,2.9,2.78Zm-6.55-6.19c-1-.9-2-1.8-3-2.7l.5-.56c1,.9,2,1.81,3,2.71Zm-6.71-6c-1-.87-2-1.74-3-2.6l.48-.58c1,.87,2.05,1.75,3.05,2.62Zm-6.89-5.8c-1-.84-2.07-1.67-3.13-2.51l.47-.59c1.06.84,2.1,1.68,3.13,2.52ZM198.48,288c-1-.81-2.12-1.61-3.21-2.41l.45-.6c1.09.8,2.16,1.6,3.21,2.41Zm-7.26-5.34-3.29-2.29.43-.62c1.11.77,2.21,1.53,3.29,2.3Zm-7.44-5.08c-1.11-.73-2.23-1.46-3.36-2.18l.4-.63c1.14.72,2.26,1.45,3.37,2.18Zm-7.61-4.83c-1.13-.69-2.27-1.38-3.43-2.07l.38-.64c1.17.69,2.31,1.38,3.44,2.07Zm-7.76-4.58c-1.15-.66-2.31-1.31-3.49-2l.36-.66c1.18.66,2.35,1.31,3.5,2Zm-7.9-4.34c-1.17-.62-2.35-1.23-3.55-1.85l.34-.66c1.2.61,2.39,1.23,3.56,1.85Zm-8-4.09c-1.18-.59-2.39-1.17-3.6-1.75l.32-.68c1.22.58,2.42,1.17,3.61,1.75Zm-8.14-3.87-3.65-1.65.3-.68q1.86.81,3.66,1.65Zm-8.24-3.65c-1.22-.52-2.45-1-3.7-1.55l.29-.7,3.7,1.56Z" style="fill:#263238"></path><path d="M127.52,248.69l-1.86-.74.27-.7,1.87.74Z" style="fill:#263238"></path><polygon points="129.9 236.16 136.5 254.31 122.63 243.47 69.59 224.24 129.9 236.16" style="fill:#FFC727"></polygon><polygon points="129.9 236.16 136.5 254.31 122.63 243.47 69.59 224.24 129.9 236.16" style="opacity:0.1"></polygon><polygon points="120.85 247.7 136.5 254.31 122.63 243.47 120.85 247.7" style="fill:#263238"></polygon><polygon points="122.63 243.47 69.59 224.24 113.09 266.69 122.63 243.47" style="fill:#FFC727"></polygon><polygon points="129.9 236.16 151.94 221.93 69.59 224.24 129.9 236.16" style="fill:#FFC727"></polygon></g><g id="freepik--speech-bubble--inject-8"><circle cx="322.15" cy="111.5" r="35.4" transform="translate(140.64 400.05) rotate(-76.92)" style="fill:#a6a6a6"></circle><rect x="297.99" y="96.17" width="48.32" height="30.65" style="fill:#fff"></rect><path d="M346.31,96.17c-1.95,1.87-3.94,3.66-5.91,5.5s-4,3.59-6,5.37-4.17,3.69-6.26,5.52l-.19.18-5.57,4.83-.27.22-.27-.22-5.56-4.84-.2-.17q-3.15-2.75-6.27-5.53c-2-1.77-4-3.57-6-5.36s-3.95-3.63-5.9-5.5c2.07,1.6,4.11,3.28,6.17,4.92s4.09,3.34,6.12,5q3.39,2.82,6.79,5.71h0l5.07,4.31c1.69-1.44,3.38-2.89,5.07-4.31v0q3.39-2.88,6.79-5.71,3-2.53,6.12-5C342.2,99.45,344.24,97.77,346.31,96.17Z" style="fill:#dbdbdb"></path><path d="M317.14,112.54l-.06,0-.76.64c-1.21,1-2.45,2-3.72,3-1.54,1.17-3.11,2.3-4.69,3.41s-3.19,2.19-4.82,3.23-3.28,2.07-5,3c1.47-1.29,3-2.48,4.53-3.65s3.12-2.3,4.7-3.42,3.19-2.19,4.82-3.24c1.3-.83,2.62-1.65,4-2.42l.95-.53Z" style="fill:#dbdbdb"></path><path d="M346.19,125.84c-1.7-.94-3.36-2-5-3s-3.23-2.13-4.83-3.23-3.15-2.24-4.69-3.41c-1.26-1-2.5-1.93-3.7-3l-.77-.65-.06,0,.07,0,.95.54c1.35.77,2.66,1.59,4,2.42,1.63,1,3.22,2.14,4.81,3.24s3.16,2.24,4.7,3.42S344.73,124.55,346.19,125.84Z" style="fill:#dbdbdb"></path><circle cx="341.02" cy="96.17" r="7.79" transform="translate(-4.44 174.93) rotate(-28.59)" style="fill:#FFC727"></circle><path d="M340.17,97.89V91.54a.86.86,0,1,1,1.71,0v6.35a.86.86,0,1,1-1.71,0Zm.86,3.78a.86.86,0,0,1-.86-.87v-.31a.86.86,0,1,1,1.71,0v.31A.85.85,0,0,1,341,101.67Z" style="fill:#fff"></path></g><g id="freepik--Character--inject-8"><path d="M135.65,302.22c15.18,7.17,24.67,36.59,17,60.5-8.27,25.85-34.73,30.78-49.94,25.26-16.14-5.86-21-23.7-13.7-34.38,7.09-10.3,18.75-13.36,21.91-22.78,1.51-4.51,1.31-12.84,3.25-19.6C116.37,303.68,126.47,297.89,135.65,302.22Z" style="fill:#263238"></path><path d="M141.51,306.32a64.66,64.66,0,0,1,13.55,22.14,52.22,52.22,0,0,1,2.85,12.78,49.67,49.67,0,0,1,.14,6.57,59.33,59.33,0,0,1-.71,6.52c-1.46,8.59-5,17.05-11,23.45a37.11,37.11,0,0,1-10.5,7.78,37.81,37.81,0,0,1-12.49,3.61,38,38,0,0,0,22.47-11.87c5.83-6.38,9.27-14.64,10.64-23.12a60.37,60.37,0,0,0,.74-6.42,49.6,49.6,0,0,0-.1-6.45,54.52,54.52,0,0,0-2.68-12.61A64.87,64.87,0,0,0,149,316.92,67.49,67.49,0,0,0,141.51,306.32Z" style="fill:#263238"></path><path d="M112.63,319.83a39.6,39.6,0,0,1-1,7.16,23,23,0,0,1-2.84,6.7,19.6,19.6,0,0,1-5,5.3c-2,1.39-3.93,2.76-5.8,4.25a35.72,35.72,0,0,0-9.54,10.48,21.51,21.51,0,0,0-2.51,13.8,21,21,0,0,1-.34-7.21,19,19,0,0,1,.82-3.56,21.16,21.16,0,0,1,1.42-3.36c2.26-4.36,5.82-7.86,9.58-10.87,1.89-1.51,3.91-2.87,5.87-4.23a19.73,19.73,0,0,0,4.94-5C110.88,329.37,112,324.57,112.63,319.83Z" style="fill:#263238"></path><path d="M351.53,445.87c-2.23.86-67,3.75-69.57,2.3-.28-.16-.2-3-1.16-10.42,0-.35-1.52-1.72-3.83-3.66-8.67-7.27-29-22.58-29-22.58l32.34-28.1,31.34,30.81,8.15,8s26.48,12.58,29.1,14.47S353.76,445,351.53,445.87Z" style="fill:#f7a9a0"></path><path d="M351.54,445.88c-2.24.85-67.05,3.74-69.58,2.29-.28-.16-.2-3-1.16-10.42,9.27,1.4,58.69,4,60.4-1.85.68-2.29-6.67-6.47-8-7.2,7,3.39,14.36,7.05,15.68,8C351.47,438.6,353.76,445,351.54,445.88Z" style="fill:#263238"></path><path d="M300.19,399.84l-5,5.69-24.88,28.41S236.05,409,226,400.82c-.32-.26-39.88,27.72-68.8,33.12-22.18,4.14-37.26-4.22-45.95-24.9l36.65-16.22c30.72-15.14,65.33-39.24,86.26-36.71C256.88,358.87,300.19,399.84,300.19,399.84Z" style="fill:#37474f"></path><path d="M292.36,397.76c-5.11,5.53-3.71,3.88-8.76,9.46-2.47,2.73-14.93,16.44-16.81,19.37,0,.06,0,.14.11.1,2.69-2.22,14.84-16.19,17.26-19,4.95-5.68,3.47-4.1,8.36-9.83C292.61,397.8,292.46,397.66,292.36,397.76Z" style="fill:#263238"></path><path d="M291.24,410.05,270.32,434S236.05,409,226,400.83c-.32-.27-39.88,27.71-68.8,33.12-22.18,4.13-37.27-4.23-45.95-24.91l36.65-16.22c4.07-2,8.2-4.17,12.37-6.4C192.44,392.29,263,405,291.24,410.05Z" style="fill:#263238"></path><path d="M346.2,457.91c-2.23.86-67,3.75-69.57,2.3-.28-.16-.21-3-1.16-10.42-.05-.35-1.52-1.73-3.83-3.66-8.67-7.27-29-22.58-29-22.58L275,395.45l31.34,30.81,8.15,8s26.48,12.58,29.1,14.47S348.43,457.06,346.2,457.91Z" style="fill:#f7a9a0"></path><path d="M346.2,457.92c-2.23.85-67,3.74-69.58,2.29-.27-.16-.2-3-1.15-10.42,9.27,1.4,58.68,4,60.4-1.85.68-2.29-6.67-6.47-8-7.2,7,3.39,14.35,7.05,15.67,8C346.14,450.64,348.43,457.06,346.2,457.92Z" style="fill:#263238"></path><path d="M326.17,440.07c-2.64-1.41-5.26-2.84-7.94-4.15a14.35,14.35,0,0,1-3.51-2.19c-1.1-1-2.13-2.06-3.2-3.09-4.35-4.15-8.68-8.31-13.06-12.43-2.37-2.22-4.72-4.47-7.07-6.72-.05-.06-.15,0-.1.08.15.23,4.09,4.45,6,6.36,2.13,2.15,4.31,4.26,6.47,6.38l6.45,6.3,3.26,3.15a12.25,12.25,0,0,0,3.3,2.35c3.07,1.46,6.19,2.78,9.31,4.12C326.18,440.28,326.28,440.13,326.17,440.07Z" style="fill:#263238"></path><path d="M105.27,402.61s-4.76,26,8.85,37.15c9.8,8,22.67,8.81,33.81,7.22,30.78-4.37,56.86-41.55,67.1-43.54,5.25-1,46.55,39.83,46.55,39.83l32.08-31.06c-8.16-7.08-56.82-56.28-81.38-56.28-16.81,0-59.44,34.92-60.46,34.51-1.68-.66-9.14-4.25-9.14-4.25Z" style="fill:#37474f"></path><path d="M287.16,408.92c-4,3.38-7.77,7.06-11.56,10.66s-7.53,7.19-11.23,10.85c-2.11,2.08-4.19,4.16-6.22,6.3a.06.06,0,0,0,.08.08c4-3.44,7.77-7.05,11.58-10.65s7.53-7.19,11.24-10.84c2.1-2.06,4.23-4.13,6.22-6.3C287.34,409,287.24,408.86,287.16,408.92Z" style="fill:#263238"></path><path d="M130.78,398.59c-.06-.14-.27,0-.24.1a17.09,17.09,0,0,1-1.36,11.59c-2.08,4-5.86,6.82-9.22,9.65-.33.28.09.79.44.58a34.63,34.63,0,0,0,6.06-4.5,16.81,16.81,0,0,0,4.08-5.42A14.92,14.92,0,0,0,130.78,398.59Z" style="fill:#263238"></path><path d="M152.41,393.06c-.95-.7-1.95-1.34-2.92-2-2.29-1.58-4.59-3.17-7-4.66-.22-.14-.48.22-.27.38,1.66,1.26,3.37,2.45,5.07,3.66l2.62,1.84a15.73,15.73,0,0,1,2.47,1.82,1.21,1.21,0,0,1-.59,2,3.31,3.31,0,0,1-2.43-.21,30.5,30.5,0,0,1-4.84-3c-.95-.62-1.91-1.24-2.87-1.84s-2.08-1.23-3.1-1.87c-.06,0-.14.06-.08.11.95.75,1.85,1.56,2.79,2.31s1.9,1.49,2.86,2.22,1.83,1.35,2.78,2a8.92,8.92,0,0,0,2.62,1.3c1.53.41,3.85-.05,4.08-1.93A2.48,2.48,0,0,0,152.41,393.06Z" style="fill:#263238"></path><path d="M291.53,409.73c-2-2.08-4.15-4.06-6.27-6.05s-4.21-3.95-6.35-5.89c-4.28-3.9-8.62-7.76-13.05-11.5s-9-7.34-13.68-10.77-9.37-6.63-14.31-9.56c-2.47-1.47-5-2.9-7.57-4.18a79,79,0,0,0-7.71-3.56c-.72-.27-1.43-.53-2.14-.83-.1,0-.19.12-.08.17,1.31.58,2.58,1.29,3.87,1.93s2.52,1.3,3.77,2c2.53,1.33,5,2.74,7.48,4.19q7.41,4.41,14.43,9.42c4.69,3.35,9.23,6.89,13.67,10.57s8.87,7.47,13.19,11.34,8.56,7.75,12.86,11.59c.55.48,1.09,1,1.65,1.43A.18.18,0,0,0,291.53,409.73Z" style="fill:#263238"></path><path d="M259.91,432.59c-9.89-9.41-36.66-33.37-42.72-37.37a5.31,5.31,0,0,0-4.19-.69,11.29,11.29,0,0,0-4,2.51l-4.4,3.49-9.05,7.17c-5.65,4.48-11.26,9-17,13.43A128.24,128.24,0,0,1,162.6,432c-10.75,6-24.33,9.79-36.17,4.64a24.27,24.27,0,0,1-12.15-12c-2.56-5.33-3.63-11.26-4.29-17.09-.16-1.41-.28-2.83-.4-4.25,0-.07-.11-.07-.11,0,.55,11,2.3,23.77,11.61,31,9.9,7.69,23.83,6.35,34.77,1.86,12.26-5,22.54-13.84,32.81-22l18-14.26c1.45-1.16,2.87-2.36,4.37-3.46s3.25-1.92,4.95-.93c5.68,3.3,42.45,36.22,43.75,37.36A.16.16,0,0,0,259.91,432.59Z" style="fill:#263238"></path><path d="M135.42,345.3c6.6,4,34.89,20.53,46.15,15.84,6.74-2.81,18.92-22.33,23.61-30.08,2.63-4.34-23.21-12.37-25.23-8.24-3.45,7.06-7.92,16.69-9,17.61s-18.63-2.48-31.49-3.36C127.9,336.28,130.77,342.48,135.42,345.3Z" style="fill:#f7a9a0"></path><path d="M208.59,322c-.79,5.34-6.65,15.62-9,17.56s-20.19-7.46-20.73-10.55,3.48-20.85,7.51-24.6S209.4,316.46,208.59,322Z" style="fill:#f7a9a0"></path><path d="M179,325.85a44.55,44.55,0,0,0-4.84-12.07c-2.77-4.39-7.39-10.6-5.08-12.18,4.74-3.25,16.23,12.25,16.23,12.25s4,7.65-.43,11.28A5.68,5.68,0,0,1,179,325.85Z" style="fill:#f7a9a0"></path><polygon points="194.68 327.2 202.04 323.51 191.35 302.19 182.04 306.86 194.68 327.2" style="fill:#FFC727"></polygon><polygon points="182.04 306.86 186.86 314.62 194.68 327.2 202.04 323.51 191.36 302.19 182.04 306.86" style="fill:#455a64"></polygon><polygon points="182.04 306.86 186.86 314.62 195.43 310.32 191.36 302.19 182.04 306.86" style="fill:#263238"></polygon><rect x="179.86" y="298.21" width="12.96" height="9.85" transform="translate(488.76 490.64) rotate(153.38)" style="fill:#455a64"></rect><polygon points="168.96 302.31 178.42 298.7 171.28 284.45 162.72 289.87 168.96 302.31" style="fill:#455a64"></polygon><polygon points="174.49 279.31 185.03 300.34 201.04 294.57 242.65 289.89 217.34 239.4 188.69 269.93 174.49 279.31" style="fill:#455a64"></polygon><path d="M222.65,268.32c7,14,16.37,23.55,20.88,21.29S246,274.16,239,260.15s-16.36-23.54-20.87-21.28S215.63,254.31,222.65,268.32Z" style="fill:#455a64"></path><path d="M224.34,266.94c6.23,12.43,14.28,21,18,19.17s1.63-13.43-4.61-25.87-14.28-21-18-19.17S218.1,254.5,224.34,266.94Z" style="fill:#263238"></path><path d="M225.42,266.39q1.26,2.49,2.58,4.75a5.64,5.64,0,0,0,6.25-8l-1.19-2.39a5.64,5.64,0,0,0-10.15.16C223.65,262.68,224.49,264.53,225.42,266.39Z" style="fill:#455a64"></path><polygon points="177.47 305.59 195.75 298.6 181.94 271.05 165.4 281.51 177.47 305.59" style="fill:#FFC727"></polygon><polygon points="177.47 305.59 195.75 298.6 181.94 271.05 165.4 281.51 177.47 305.59" style="fill:#263238"></polygon><path d="M216.71,244a17.37,17.37,0,0,0-.16,6.35,39.18,39.18,0,0,0,1.34,6.24c.27,1,.64,2,1,3.05s.74,2,1.15,3,.83,2,1.28,2.93.9,1.93,1.38,2.87a70,70,0,0,0,6.7,10.86,35.64,35.64,0,0,0,4.3,4.72,15,15,0,0,0,5.4,3.32,15.77,15.77,0,0,1-5.2-3.53,36.23,36.23,0,0,1-4.13-4.79,74,74,0,0,1-6.53-10.85,76.44,76.44,0,0,1-4.88-11.68,39.68,39.68,0,0,1-1.5-6.15A18.32,18.32,0,0,1,216.71,244Z" style="fill:#263238"></path><path d="M234.77,233.61c-.85,1.21-1.63,2.45-2.41,3.7s-1.51,2.51-2.25,3.79-1.44,2.55-2.12,3.86l-1,2c-.31.66-.65,1.32-.95,2,.43-.6.82-1.22,1.24-1.83l1.17-1.87c.78-1.24,1.51-2.51,2.25-3.78s1.44-2.56,2.12-3.87S234.16,235,234.77,233.61Z" style="fill:#263238"></path><path d="M239.21,277.14c1.66-.06,3.31-.19,5-.33s3.29-.33,4.94-.51,3.29-.41,4.92-.67l2.46-.38c.81-.16,1.63-.29,2.45-.46-.84,0-1.66.09-2.49.13l-2.48.2c-1.65.14-3.3.33-4.94.51s-3.29.41-4.92.67S240.84,276.81,239.21,277.14Z" style="fill:#263238"></path><path d="M266.79,262.88c-2.38.51-4.75,1.09-7.11,1.68s-4.71,1.23-7.06,1.86-4.69,1.31-7,2l-3.5,1.06c-1.16.37-2.33.73-3.48,1.12,1.19-.25,2.38-.54,3.57-.81l3.54-.88c2.37-.58,4.71-1.22,7.06-1.86s4.7-1.3,7-2S264.48,263.65,266.79,262.88Z" style="fill:#263238"></path><path d="M247.93,230.18c-1.61,1.88-3.16,3.8-4.71,5.73s-3.06,3.87-4.57,5.83-3,3.92-4.44,5.92l-2.18,3c-.71,1-1.44,2-2.13,3,.81-.93,1.59-1.89,2.39-2.84l2.32-2.88c1.55-1.92,3.06-3.87,4.57-5.83s3-3.93,4.45-5.92S246.54,232.23,247.93,230.18Z" style="fill:#263238"></path><path d="M235,261.89c2.6-1.18,5.16-2.42,7.72-3.68s5.1-2.57,7.64-3.84,5.06-2.63,7.58-4l3.76-2c1.24-.7,2.49-1.38,3.72-2.1-1.3.58-2.58,1.2-3.87,1.81l-3.85,1.87c-2.56,1.26-5.09,2.56-7.64,3.84s-5.06,2.63-7.57,4S237.47,260.47,235,261.89Z" style="fill:#263238"></path><path d="M181.31,311.4c1.11,2.64,3.58-.18,3.58-.18s-2.58,4.91-.38,7.18,5-1.32,5.19-1.57c-.14.27-2.39,4.83.05,6.89s4.8-1.87,4.95-2.13c0,.28-.64,4.07,1.57,5.22,3.79,2,5.57-7.7,8.49-9.54,0,0,3.69,4.6,3.83,4.71s1.87-9.15-.84-13a3,3,0,0,0-3.58-1.08s.93-2.88-.93-4.56c-1-.86-3.2-.09-3.2-.09a3.74,3.74,0,0,0-1.1-3.73c-1.4-1.11-3.42-.16-3.42-.16s-.42-2.54-2.22-3.21C189.68,294.83,179,305.76,181.31,311.4Z" style="fill:#f7a9a0"></path><path d="M195.18,299.51s0-.1-.05-.07a26.61,26.61,0,0,0-10.39,11.92c-.06.16.17.33.27.17A54.2,54.2,0,0,1,195.18,299.51Z" style="fill:#263238"></path><path d="M200.08,303.23s0-.12-.08-.08a24.89,24.89,0,0,0-10.52,13.7c-.06.2.09.44.17.21C191,313.27,196.32,306.45,200.08,303.23Z" style="fill:#263238"></path><path d="M194.73,322c1.77-5.53,5.14-9.94,9.25-14,.05-.05,0-.12-.08-.09-2.55,1.42-4.9,4.26-6.55,6.63a15.38,15.38,0,0,0-2.82,7.37C194.52,322.08,194.69,322.15,194.73,322Z" style="fill:#263238"></path><path d="M184.8,311.25c-.08.19.28.09.21.28-.3.81-1.7,5.84-.13,6.85,1.26.81,3.21-.33,3.79-1.05l1.46-1.84-.73,2.23a9.72,9.72,0,0,0-.51,3.06,3.43,3.43,0,0,0,1,2.62,2,2,0,0,0,2.46.23,5.87,5.87,0,0,0,1.93-2.24l1.31-2.45-.43,2.73a9.24,9.24,0,0,0-.08,2.29,3.74,3.74,0,0,0,.74,2,1.76,1.76,0,0,0,1.75.6,4,4,0,0,0,1.73-1.33,30.13,30.13,0,0,0,2.59-4.06c.41-.7.81-1.41,1.26-2.1a5.73,5.73,0,0,1,1.61-1.82,6.08,6.08,0,0,0-1.42,1.94c-.39.71-.74,1.44-1.09,2.17a25.93,25.93,0,0,1-2.42,4.28,4.63,4.63,0,0,1-2,1.67,2.51,2.51,0,0,1-2.62-.79,4.51,4.51,0,0,1-1-2.47,10,10,0,0,1,0-2.56l.88.28a6.85,6.85,0,0,1-2.26,2.68,2.82,2.82,0,0,1-1.87.45,3.28,3.28,0,0,1-1.72-.81,4.31,4.31,0,0,1-1.26-3.32,10.43,10.43,0,0,1,.6-3.36l.73.4c-.77.9-2.81,2.4-4.92,1.4C181.87,317.51,184.29,312.19,184.8,311.25Z" style="fill:#263238"></path><path d="M184.89,311.22a5.86,5.86,0,0,1-1.53.85,1.34,1.34,0,0,1-1.33-.21,2.72,2.72,0,0,1-.68-1.38c-.12-.56-.22-1.16-.31-1.78a4.72,4.72,0,0,0-.31,1.87,2.7,2.7,0,0,0,.77,1.89,1.81,1.81,0,0,0,2.1.18A3,3,0,0,0,184.89,311.22Z" style="fill:#263238"></path><path d="M164.67,337.75l-14.83,16.8s-10-5.22-15.1-8.89c-6.77-4.85-6.56-8.5,3.61-9.49C145.15,335.51,164.67,337.75,164.67,337.75Z" style="fill:#FFC727"></path><path d="M153.1,350.78a1.3,1.3,0,0,0-1.3,1.3.83.83,0,0,0,0,.22l.43-.49a.79.79,0,0,1,.46-.53h0l.41-.47Zm7.06-7.92a1.27,1.27,0,0,0-1.24-1,1.3,1.3,0,0,0-1.3,1.3,1.27,1.27,0,0,0,1.17,1.26l.37-.42a.67.67,0,0,1-.24,0,.89.89,0,1,1,.88-.88.57.57,0,0,1,0,.13Zm-12.89-1a1.29,1.29,0,1,0,1.3,1.3A1.29,1.29,0,0,0,147.27,341.85Zm0,2.18a.89.89,0,1,1,.88-.88A.89.89,0,0,1,147.27,344Zm-11.64-2.18a1.29,1.29,0,1,0,1.29,1.3A1.3,1.3,0,0,0,135.63,341.85Zm0,2.18a.89.89,0,1,1,.89-.88A.89.89,0,0,1,135.63,344Z" style="opacity:0.2"></path><path d="M161.57,338c-2.33,2.3-4.61,4.63-6.8,7.06-1.1,1.21-2.17,2.43-3.22,3.68s-2,2.6-3.06,3.82c-.05.07.06.16.11.09,1-1.28,2.19-2.43,3.26-3.66s2.16-2.45,3.25-3.66c2.17-2.43,4.34-4.86,6.57-7.24C161.74,338.07,161.63,338,161.57,338Z" style="fill:#263238"></path><path d="M156.81,346.65l-7,7.91a169.32,169.32,0,0,1-15.1-8.89c-4.85-3.48-6.11-6.34-2.71-8Z" style="opacity:0.1"></path><path d="M155.62,380.3l2,7.5S103.25,429.36,100.79,428c0,0,8.06-72.61,22-87,7-7.21,14.93-6.46,19.89-1.18,1.25,1.34,14.88,18.4,16.31,26.19C160.23,372.88,155.62,380.3,155.62,380.3Z" style="fill:#FFC727"></path><path d="M154.62,356.21c-.84-1.53-1.72-3-2.66-4.48a14.58,14.58,0,0,0-.76-1.6c-.39-.77-.77-1.53-1.11-2.32,0-.07-.13,0-.1.05.36.78.68,1.56,1,2.36l0,.13c-.34-.5-.7-1-1.06-1.48-.57-.76-1.11-1.56-1.75-2.26,0,0-.08,0-.06.05.45.82,1,1.59,1.53,2.38s1.05,1.64,1.6,2.46c1.06,1.6,2.15,3.18,3.23,4.77A.06.06,0,0,0,154.62,356.21Z" style="fill:#263238"></path><path d="M124,341.85a1.29,1.29,0,1,0,1.3,1.3A1.29,1.29,0,0,0,124,341.85Zm0,2.18a.89.89,0,0,1,0-1.77.89.89,0,0,1,0,1.77Zm11.65-2.18a1.29,1.29,0,1,0,1.29,1.3A1.3,1.3,0,0,0,135.63,341.85Zm0,2.18a.89.89,0,1,1,.89-.88A.89.89,0,0,1,135.63,344Zm-22.07,16.38c-.15.47-.29.94-.43,1.42a1.23,1.23,0,0,0,.5-1A1.16,1.16,0,0,0,113.56,360.41Zm10.42-.88a1.29,1.29,0,1,0,1.3,1.3A1.29,1.29,0,0,0,124,359.53Zm0,2.18a.89.89,0,0,1-.88-.88A.87.87,0,0,1,124,360a.86.86,0,0,1,.88.88A.87.87,0,0,1,124,361.71Zm11.65-2.18a1.29,1.29,0,1,0,1.29,1.3A1.3,1.3,0,0,0,135.63,359.53Zm0,2.18a.89.89,0,0,1-.88-.88.89.89,0,0,1,1.77,0A.89.89,0,0,1,135.63,361.71Zm11.64-2.18a1.29,1.29,0,1,0,1.3,1.3A1.29,1.29,0,0,0,147.27,359.53Zm0,2.18a.89.89,0,0,1-.88-.88.88.88,0,1,1,1.76,0A.89.89,0,0,1,147.27,361.71Zm-29.1-10.93a1.29,1.29,0,1,0,1.28,1.3A1.3,1.3,0,0,0,118.17,350.78Zm0,2.18a.89.89,0,1,1,.87-.88A.87.87,0,0,1,118.17,353Zm11.64-2.18a1.29,1.29,0,1,0,1.29,1.3A1.3,1.3,0,0,0,129.81,350.78Zm0,2.18a.89.89,0,1,1,.88-.88A.89.89,0,0,1,129.81,353Zm11.63-2.18a1.29,1.29,0,1,0,1.3,1.3A1.29,1.29,0,0,0,141.44,350.78Zm0,2.18a.89.89,0,1,1,.89-.88A.88.88,0,0,1,141.44,353Zm10.37-.94a.13.13,0,0,0,0,.06,1.3,1.3,0,0,0,.84,1.2C152.37,352.86,152.09,352.44,151.81,352Zm-39.47,25.2a1.29,1.29,0,1,0,1.29,1.29A1.29,1.29,0,0,0,112.34,377.22Zm0,2.18a.89.89,0,1,1,.89-.89A.89.89,0,0,1,112.34,379.4ZM124,377.22a1.29,1.29,0,1,0,1.3,1.29A1.29,1.29,0,0,0,124,377.22Zm0,2.18a.89.89,0,0,1,0-1.77.89.89,0,0,1,0,1.77Zm11.65-2.18a1.29,1.29,0,1,0,1.29,1.29A1.3,1.3,0,0,0,135.63,377.22Zm0,2.18a.89.89,0,1,1,.89-.89A.89.89,0,0,1,135.63,379.4Zm11.64-2.18a1.29,1.29,0,1,0,1.3,1.29A1.29,1.29,0,0,0,147.27,377.22Zm0,2.18a.89.89,0,1,1,.88-.89A.89.89,0,0,1,147.27,379.4Zm-29.1-10.94a1.3,1.3,0,1,0,1.28,1.3A1.3,1.3,0,0,0,118.17,368.46Zm0,2.19a.89.89,0,1,1,.87-.89A.88.88,0,0,1,118.17,370.65Zm11.64-2.19a1.3,1.3,0,1,0,1.29,1.3A1.3,1.3,0,0,0,129.81,368.46Zm0,2.19a.89.89,0,1,1,0-1.77.89.89,0,0,1,0,1.77Zm11.63-2.19a1.3,1.3,0,1,0,1.3,1.3A1.29,1.29,0,0,0,141.44,368.46Zm0,2.19a.89.89,0,1,1,.89-.89A.88.88,0,0,1,141.44,370.65Zm11.66-2.19a1.3,1.3,0,1,0,1.29,1.3A1.3,1.3,0,0,0,153.1,368.46Zm0,2.19a.89.89,0,1,1,0-1.77.89.89,0,0,1,0,1.77ZM112.34,394.9a1.29,1.29,0,1,0,1.29,1.3A1.3,1.3,0,0,0,112.34,394.9Zm0,2.18a.89.89,0,0,1-.88-.88.89.89,0,0,1,1.77,0A.89.89,0,0,1,112.34,397.08ZM124,394.9a1.29,1.29,0,1,0,1.3,1.3A1.29,1.29,0,0,0,124,394.9Zm0,2.18a.89.89,0,0,1-.88-.88.87.87,0,0,1,.88-.88.86.86,0,0,1,.88.88A.87.87,0,0,1,124,397.08Zm11.65-2.18a1.29,1.29,0,1,0,1.29,1.3A1.3,1.3,0,0,0,135.63,394.9Zm0,2.18a.89.89,0,0,1-.88-.88.89.89,0,0,1,1.77,0A.89.89,0,0,1,135.63,397.08Zm11.64-2.18a1.29,1.29,0,0,0-1.28,1.3,1,1,0,0,0,.07.38c.12-.08.23-.17.34-.26a.49.49,0,0,1,0-.12.87.87,0,0,1,.88-.88.86.86,0,0,1,.36.08l.37-.28A1.31,1.31,0,0,0,147.27,394.9Zm-40-8.52c0,.16-.07.31-.1.46a.85.85,0,0,1,.25.61.9.9,0,0,1-.52.8l-.09.45a1.29,1.29,0,0,0,.46-2.32Zm10.92-.23a1.29,1.29,0,1,0,1.28,1.3A1.3,1.3,0,0,0,118.17,386.15Zm0,2.18a.89.89,0,1,1,.87-.88A.87.87,0,0,1,118.17,388.33Zm11.64-2.18a1.29,1.29,0,1,0,1.29,1.3A1.3,1.3,0,0,0,129.81,386.15Zm0,2.18a.89.89,0,1,1,.88-.88A.89.89,0,0,1,129.81,388.33Zm11.63-2.18a1.29,1.29,0,1,0,1.3,1.3A1.29,1.29,0,0,0,141.44,386.15Zm0,2.18a.89.89,0,1,1,.89-.88A.88.88,0,0,1,141.44,388.33Zm11.66-2.18a1.29,1.29,0,1,0,1.29,1.3A1.3,1.3,0,0,0,153.1,386.15Zm0,2.18a.89.89,0,1,1,.88-.88A.89.89,0,0,1,153.1,388.33Zm-40.76,24.26a1.29,1.29,0,1,0,1.29,1.29A1.29,1.29,0,0,0,112.34,412.59Zm0,2.18a.89.89,0,1,1,.89-.89A.89.89,0,0,1,112.34,414.77ZM124,412.59a1.29,1.29,0,0,0-1.28,1.25l.5-.35h0a.86.86,0,0,1,.65-.47h0l.49-.36A1.15,1.15,0,0,0,124,412.59Zm-17.46-8.76a1.29,1.29,0,1,0,0,2.58,1.29,1.29,0,0,0,0-2.58Zm0,2.18a.88.88,0,1,1,.88-.88A.89.89,0,0,1,106.52,406Zm11.65-2.18a1.29,1.29,0,1,0,1.28,1.3A1.3,1.3,0,0,0,118.17,403.83Zm0,2.18a.88.88,0,1,1,.87-.88A.87.87,0,0,1,118.17,406Zm11.64-2.18a1.29,1.29,0,1,0,1.29,1.3A1.3,1.3,0,0,0,129.81,403.83Zm0,2.18a.88.88,0,1,1,.88-.88A.89.89,0,0,1,129.81,406Zm-23.29,15.51a1.29,1.29,0,1,0,0,2.58,1.29,1.29,0,0,0,0-2.58Zm0,2.18a.89.89,0,1,1,.88-.88A.89.89,0,0,1,106.52,423.7Z" style="opacity:0.2"></path><path d="M122.47,341.76c-19.19,20-47.18,70.57-50.64,77.83-2.35,4.93,23.4,17.91,24.5,14.33,1.4-4.59,23.82-61.21,29.78-82.58C129.4,339.56,126.44,337.63,122.47,341.76Z" style="fill:#f7a9a0"></path><path d="M97.54,430.53c-.9,2.45-4,12.87-6.1,14.17s-13.35,1-19,1-6.77-1.57-6.68-3.52,12-2.32,12-2.32-15.85,4.54-19.83,5.29-13.18,3.06-14.5-.25c-.6-1.49,1.91-3,1.91-3s-3.85,1.13-4.47-.79c-.69-2.18,2.37-3.38,2.37-3.38s-2.41.48-2.46-1.29c-.13-4,15-5.93,15-5.93s-11.54,5.62-11.92,2.38c-.51-4.49,23.15-9.41,25.61-11.36a16.81,16.81,0,0,0,3.94-4.87Z" style="fill:#f7a9a0"></path><path d="M65.84,443.19a1.76,1.76,0,0,1,.53-1.52,4.88,4.88,0,0,1,1.38-.89,17.78,17.78,0,0,1,3.24-1c2.23-.57,4.52-1,6.79-1.56a27.85,27.85,0,0,0-7,.79,12.72,12.72,0,0,0-3.33,1.27,4.59,4.59,0,0,0-1.4,1.2A1.84,1.84,0,0,0,65.84,443.19Z" style="fill:#263238"></path><path d="M45.29,441.92c1.63-.4,3.24-.86,4.84-1.32s3.2-1,4.8-1.44l4.78-1.49c1.59-.5,3.18-1,4.79-1.48a37.9,37.9,0,0,0-5,.89c-1.63.37-3.24.84-4.84,1.32s-3.19,1-4.76,1.62S46.82,441.21,45.29,441.92Z" style="fill:#263238"></path><path d="M60.67,432.23a32,32,0,0,0-4.57.63A43.32,43.32,0,0,0,51.62,434a40.28,40.28,0,0,0-4.33,1.61,33.84,33.84,0,0,0-4.1,2.12c1.46-.5,2.88-1.06,4.33-1.55s2.88-1,4.34-1.43,2.92-.88,4.38-1.31S59.18,432.64,60.67,432.23Z" style="fill:#263238"></path><path d="M58.34,428.45A28.3,28.3,0,0,0,51.06,430a27.83,27.83,0,0,0-6.7,3.24c2.35-.84,4.63-1.72,7-2.49S56,429.21,58.34,428.45Z" style="fill:#263238"></path><path d="M102.3,363.31l22.4.79A168.45,168.45,0,0,0,128.64,347c1.13-8.26-1.67-10.61-9.38-3.91C114.11,347.6,102.3,363.31,102.3,363.31Z" style="fill:#FFC727"></path><path d="M118.17,350.78a1.29,1.29,0,1,0,1.28,1.3A1.3,1.3,0,0,0,118.17,350.78Zm0,2.18a.89.89,0,1,1,.87-.88A.87.87,0,0,1,118.17,353Zm5.81,6.57a1.29,1.29,0,1,0,1.3,1.3A1.29,1.29,0,0,0,124,359.53Zm0,2.18a.89.89,0,0,1-.88-.88A.87.87,0,0,1,124,360a.86.86,0,0,1,.88.88A.87.87,0,0,1,124,361.71Zm-11.64-2.18a1.29,1.29,0,1,0,1.29,1.3A1.3,1.3,0,0,0,112.34,359.53Zm0,2.18a.89.89,0,0,1-.88-.88.89.89,0,0,1,1.77,0A.89.89,0,0,1,112.34,361.71ZM124,341.85a1.29,1.29,0,1,0,1.3,1.3A1.29,1.29,0,0,0,124,341.85Zm0,2.18a.89.89,0,0,1,0-1.77.89.89,0,0,1,0,1.77Z" style="opacity:0.2"></path><path d="M122,364c.25,0,2.55,0,2.71,0,.33-1.28.65-2.57,1-3.85.17-.64.36-1.28.55-1.91s.41-1.5.6-2.12a.07.07,0,1,1,.14,0c-.17.83-.32,1.44-.46,2.15s-.28,1.28-.44,1.91c-.33,1.34-.63,2.78-1,4.1a23.27,23.27,0,0,1-3-.24S121.93,364,122,364Z" style="fill:#263238"></path><path d="M104.65,361.26c3.27-.11,6.53-.17,9.8-.09,1.63,0,3.26.1,4.89.2s3.25.34,4.87.41c.09,0,.08.15,0,.14-1.61-.15-3.27-.09-4.89-.15s-3.27-.12-4.9-.16c-3.25-.09-6.51-.19-9.77-.21C104.55,361.4,104.56,361.27,104.65,361.26Z" style="fill:#263238"></path><path d="M132.38,336c-6.72.67-4.92,7.44-2,10.55,2,2.07,6,4.16,8.28,3.34s.48-6,.48-6,3.79,3.67,5.2,2.08S139.34,335.28,132.38,336Z" style="fill:#fff"></path><path d="M128.89,339.53c.38,1,5.51,4.83,10,4,1.46-.29.79-6.48.79-6.48l0-.61.65-8.61-10.71-4.86-1.54-.63s0,2.37,0,5.32V328c0,.17,0,.32,0,.48,0,.44,0,.89,0,1.34s0,.67,0,1l0,1.07A55.61,55.61,0,0,0,128.89,339.53Z" style="fill:#f7a9a0"></path><path d="M128.11,327.62a17.32,17.32,0,0,0,11.62,8.78l.65-8.61-10.71-4.86-1.54-.63S128.11,324.67,128.11,327.62Z" style="fill:#263238"></path><path d="M149.1,310.37c6.23,13.81-1.34,19.11-4.31,20.45-2.71,1.22-12.07,5-19.7-8.07s-3.19-20.36,2.85-23.47S142.86,296.56,149.1,310.37Z" style="fill:#f7a9a0"></path><path d="M143.56,308.1a9,9,0,0,1-1,.16,1.67,1.67,0,0,1-1.08,0,.53.53,0,0,1-.24-.61,1.35,1.35,0,0,1,1.12-.77,2,2,0,0,1,1.4.21A.58.58,0,0,1,143.56,308.1Z" style="fill:#263238"></path><path d="M134.05,312.3c.31-.17.58-.37.88-.57s.62-.36.78-.75a.52.52,0,0,0-.24-.61,1.34,1.34,0,0,0-1.34.18,2,2,0,0,0-.9,1.09A.58.58,0,0,0,134.05,312.3Z" style="fill:#263238"></path><path d="M137.63,315.12s0,.08,0,.11c.42.95.75,2.1,0,2.77,0,0,0,.07,0,.05C138.63,317.47,138.19,315.94,137.63,315.12Z" style="fill:#263238"></path><path d="M136.37,314.47c-1.58.52-.43,3.65,1,3.17S137.7,314,136.37,314.47Z" style="fill:#263238"></path><path d="M135.82,314.86c-.21.28-.36.69-.68.85s-.77,0-1.14-.27c0,0-.05,0,0,.05.21.61.67,1.14,1.34,1s.85-.82.77-1.48C136.06,314.88,135.9,314.75,135.82,314.86Z" style="fill:#263238"></path><path d="M143.1,312.55s.09,0,.1.06c.32,1,.85,2.05,1.84,2.06,0,0,.05.05,0,.06C143.93,315,143.24,313.53,143.1,312.55Z" style="fill:#263238"></path><path d="M143.6,311.22c1.52-.68,2.77,2.41,1.36,3S142.33,311.79,143.6,311.22Z" style="fill:#263238"></path><path d="M144.33,311.17c.31.06.67.26,1,.16s.46-.55.55-.95c0-.05,0,0,.06,0,.26.59.31,1.28-.21,1.62s-1.06,0-1.44-.57C144.19,311.34,144.2,311.14,144.33,311.17Z" style="fill:#263238"></path><path d="M140.69,322.44c.31.15.64.4,1,.31a2.8,2.8,0,0,0,1-.58,0,0,0,0,1,.06,0,1.41,1.41,0,0,1-1.08.93,1.09,1.09,0,0,1-1-.63C140.57,322.46,140.64,322.41,140.69,322.44Z" style="fill:#263238"></path><path d="M143.39,317.42s.75,1.36,1,2c0,.07-.13.16-.36.26h0a3.47,3.47,0,0,1-3.6,0c-.07-.05,0-.15.07-.14a5.23,5.23,0,0,0,3.27-.27c0-.21-1.36-2.3-1.25-2.35a6.48,6.48,0,0,1,1.67-.23c-1.47-2.89-3.39-5.52-4.82-8.42a.1.1,0,0,1,.16-.11A52.77,52.77,0,0,1,145.1,317C145.3,317.41,143.71,317.43,143.39,317.42Z" style="fill:#263238"></path><path d="M143.86,319.26a4.22,4.22,0,0,1-.91,1.93,1.89,1.89,0,0,1-1,.59c-.84.18-1.21-.49-1.37-1.14a4.73,4.73,0,0,1-.12-1.06A5.45,5.45,0,0,0,143.86,319.26Z" style="fill:#263238"></path><path d="M143,321.19a1.89,1.89,0,0,1-1,.59c-.84.18-1.21-.49-1.37-1.14A2,2,0,0,1,143,321.19Z" style="fill:#ff9abb"></path><path d="M125.21,323c1.54-.72,3.94-6.68,1.06-14.36,0,0,2.11,7.07,2,8.28s1.34-3.36-.9-9.58a26.84,26.84,0,0,0,7.6.78c3.23-.33,5-1.06,5.12-1.35s-4.68.05-6.37-.83c0,0,9.15.54,12.82-.59.42-.13-2.43-8.8-9.35-10.22s-14.12,5.9-15.57,9.09c0,0-2.6,1.48-4,6.74S123.55,323.76,125.21,323Z" style="fill:#263238"></path><path d="M127.76,322.82s-4.69-3.37-6.32-1.55,3,7.47,5.67,7.52a2.55,2.55,0,0,0,2.78-2.43Z" style="fill:#f7a9a0"></path><path d="M122.8,322.86a0,0,0,0,0,0,.07,6.46,6.46,0,0,1,4.5,2.71,1.41,1.41,0,0,0-2.12.34s0,.1.07.07a1.58,1.58,0,0,1,1.82-.05,7.35,7.35,0,0,1,1.25,1c.13.13.37-.05.26-.2l0,0C127.86,324.67,125.16,322.27,122.8,322.86Z" style="fill:#263238"></path><path d="M121.79,303.5c-1.78,1.85-8,2-10.82-.89-3.85-3.95.68-12.21,6.62-10.43S123.16,302.07,121.79,303.5Z" style="fill:#263238"></path><path d="M111,294.6a11.07,11.07,0,0,0-1.81,5,4.1,4.1,0,0,0,2.34,4.12,9.67,9.67,0,0,0,2.47.88,11.69,11.69,0,0,0,2.63.33,9.16,9.16,0,0,0,5.12-1.46,7.85,7.85,0,0,1-5.09,2.16,10.82,10.82,0,0,1-2.84-.2,10.19,10.19,0,0,1-2.72-.93,5.07,5.07,0,0,1-2.12-2.06,4.82,4.82,0,0,1-.48-2.9A9.22,9.22,0,0,1,111,294.6Z" style="fill:#263238"></path></g></svg>